<svg id="svg" version="1.1" width="400" height="452.4781341107872" xmlns="http://www.w3.org/2000/svg" xmlns:xlink="http://www.w3.org/1999/xlink" style="display: block;"><g id="svgg"><path id="path0" d="M24.000 0.400 C 24.000 0.631,22.733 0.800,21.000 0.800 C 18.600 0.800,18.000 0.920,18.000 1.400 C 18.000 1.833,17.556 2.000,16.400 2.000 C 15.520 2.000,14.800 2.180,14.800 2.400 C 14.800 2.620,14.260 2.800,13.600 2.800 C 12.800 2.800,12.400 3.000,12.400 3.400 C 12.400 3.730,12.130 4.000,11.800 4.000 C 11.470 4.000,11.200 4.270,11.200 4.600 C 11.200 4.930,10.930 5.200,10.600 5.200 C 10.270 5.200,10.000 5.470,10.000 5.800 C 10.000 6.130,9.730 6.400,9.400 6.400 C 9.070 6.400,8.800 6.670,8.800 7.000 C 8.800 7.330,8.530 7.600,8.200 7.600 C 7.870 7.600,7.600 7.870,7.600 8.200 C 7.600 8.530,7.330 8.800,7.000 8.800 C 6.670 8.800,6.400 9.070,6.400 9.400 C 6.400 9.730,6.130 10.000,5.800 10.000 C 5.400 10.000,5.200 10.400,5.200 11.200 C 5.200 12.000,5.000 12.400,4.600 12.400 C 4.270 12.400,4.000 12.670,4.000 13.000 C 4.000 13.330,3.822 13.600,3.605 13.600 C 3.387 13.600,3.094 14.320,2.954 15.200 C 2.813 16.080,2.541 16.800,2.349 16.800 C 2.157 16.800,2.000 18.150,2.000 19.800 C 2.000 22.200,1.880 22.800,1.400 22.800 C 0.868 22.800,0.800 39.778,0.800 173.200 C 0.800 293.260,0.901 323.597,1.300 323.588 C 1.860 323.574,13.769 322.609,20.748 322.012 C 23.249 321.799,25.589 321.531,25.948 321.418 C 26.306 321.305,28.400 321.033,30.600 320.814 C 32.800 320.595,35.680 320.240,37.000 320.025 C 38.320 319.810,41.290 319.353,43.600 319.010 C 50.604 317.969,55.462 317.095,63.800 315.377 C 69.217 314.261,72.538 313.541,74.000 313.167 C 74.770 312.969,77.200 312.368,79.400 311.830 C 81.600 311.292,85.470 310.309,88.000 309.645 C 92.346 308.505,93.886 308.071,98.900 306.572 C 100.055 306.227,101.540 305.790,102.200 305.602 C 102.860 305.414,104.570 304.873,106.000 304.400 C 107.430 303.927,109.140 303.385,109.800 303.195 C 110.460 303.005,112.800 302.197,115.000 301.400 C 117.200 300.602,119.450 299.795,120.000 299.605 C 120.550 299.415,121.990 298.871,123.200 298.396 C 124.410 297.921,125.760 297.432,126.200 297.308 C 126.640 297.185,127.180 296.961,127.400 296.811 C 127.620 296.661,128.700 296.214,129.800 295.818 C 132.582 294.817,137.403 292.780,138.895 291.975 C 139.277 291.769,139.771 291.600,139.994 291.600 C 140.216 291.600,141.613 291.042,143.099 290.360 C 156.661 284.133,170.110 277.307,179.800 271.731 C 180.680 271.225,181.670 270.684,182.000 270.528 C 182.330 270.373,184.670 269.018,187.200 267.516 C 192.609 264.304,192.020 264.662,196.720 261.725 C 198.766 260.446,200.746 259.214,201.120 258.988 C 207.539 255.093,227.581 241.464,233.000 237.307 C 233.220 237.138,234.052 236.562,234.849 236.027 C 237.511 234.240,237.488 233.799,234.678 232.801 C 233.315 232.318,231.840 231.764,231.400 231.572 C 230.513 231.184,229.000 230.656,222.800 228.572 C 220.490 227.796,218.240 227.004,217.800 226.811 C 217.360 226.619,215.920 226.159,214.600 225.789 C 213.280 225.420,211.660 224.935,211.000 224.713 C 198.257 220.422,186.884 222.961,176.800 232.350 C 174.581 234.416,172.338 235.656,171.622 235.214 C 171.054 234.862,171.352 232.000,171.957 232.000 C 172.133 232.000,172.440 231.657,172.639 231.239 C 172.837 230.820,173.630 229.711,174.400 228.774 C 175.170 227.837,176.851 225.795,178.136 224.235 C 181.331 220.359,186.207 215.437,188.174 214.105 C 189.068 213.498,189.890 212.896,190.000 212.766 C 190.397 212.298,194.230 210.188,195.599 209.684 C 201.340 207.570,202.083 207.435,208.000 207.425 C 214.591 207.415,215.522 207.592,231.200 211.842 C 235.390 212.978,236.216 213.192,239.600 214.025 C 245.350 215.439,245.704 215.519,249.000 216.156 C 257.993 217.893,264.687 217.771,272.886 215.721 C 279.847 213.981,281.541 216.239,278.073 222.635 C 277.845 223.056,277.553 223.670,277.425 224.000 C 277.296 224.330,276.835 225.140,276.400 225.800 C 275.965 226.460,275.493 227.236,275.352 227.525 C 274.149 229.984,269.450 234.420,265.442 236.881 C 263.219 238.246,261.310 239.471,261.200 239.602 C 261.090 239.734,260.280 240.277,259.400 240.808 C 258.520 241.340,257.620 241.920,257.400 242.097 C 257.180 242.275,254.750 243.997,252.000 245.924 C 247.677 248.953,239.306 255.176,234.805 258.706 C 231.993 260.911,218.296 271.589,206.879 280.477 C 200.432 285.496,194.132 290.291,192.879 291.133 C 191.625 291.975,189.340 293.535,187.800 294.601 C 174.031 304.128,156.915 315.064,149.000 319.390 C 147.460 320.231,145.570 321.316,144.800 321.800 C 144.030 322.284,140.520 324.174,137.000 326.000 C 133.480 327.827,130.330 329.468,130.000 329.647 C 128.941 330.222,116.758 336.000,116.604 336.000 C 116.523 336.000,115.228 336.551,113.728 337.225 C 109.774 339.001,108.799 339.424,104.600 341.178 C 102.868 341.902,97.313 344.115,95.800 344.685 C 94.920 345.016,93.750 345.469,93.200 345.691 C 92.650 345.913,91.750 346.240,91.200 346.417 C 90.650 346.595,89.210 347.122,88.000 347.589 C 85.333 348.617,69.147 354.016,65.800 354.992 C 64.480 355.378,62.680 355.930,61.800 356.219 C 60.920 356.509,59.120 357.048,57.800 357.417 C 56.480 357.786,54.590 358.317,53.600 358.596 C 51.810 359.102,48.423 360.001,44.600 360.986 C 39.427 362.319,28.406 364.532,24.600 365.003 C 23.500 365.139,21.790 365.413,20.800 365.612 C 16.628 366.448,3.962 368.078,2.100 368.017 L 0.800 367.975 0.800 399.387 C 0.800 427.043,0.872 430.800,1.400 430.800 C 1.880 430.800,2.000 431.400,2.000 433.800 C 2.000 435.533,2.169 436.800,2.400 436.800 C 2.620 436.800,2.800 437.250,2.800 437.800 C 2.800 438.422,3.027 438.800,3.400 438.800 C 3.800 438.800,4.000 439.200,4.000 440.000 C 4.000 440.800,4.200 441.200,4.600 441.200 C 4.930 441.200,5.200 441.470,5.200 441.800 C 5.200 442.130,5.470 442.400,5.800 442.400 C 6.200 442.400,6.400 442.800,6.400 443.600 C 6.400 444.400,6.600 444.800,7.000 444.800 C 7.330 444.800,7.600 445.070,7.600 445.400 C 7.600 445.730,7.870 446.000,8.200 446.000 C 8.530 446.000,8.800 446.270,8.800 446.600 C 8.800 447.000,9.200 447.200,10.000 447.200 C 10.800 447.200,11.200 447.400,11.200 447.800 C 11.200 448.130,11.470 448.400,11.800 448.400 C 12.130 448.400,12.400 448.670,12.400 449.000 C 12.400 449.400,12.800 449.600,13.600 449.600 C 14.400 449.600,14.800 449.800,14.800 450.200 C 14.800 450.578,15.181 450.800,15.829 450.800 C 16.394 450.800,17.099 451.042,17.395 451.338 C 18.608 452.551,34.400 452.553,34.400 451.339 C 34.400 450.967,34.957 450.800,36.200 450.800 C 37.533 450.800,38.000 450.644,38.000 450.200 C 38.000 449.797,38.403 449.600,39.224 449.600 C 39.989 449.600,40.348 449.440,40.183 449.173 C 40.038 448.938,40.297 448.647,40.760 448.526 C 41.222 448.406,41.600 448.058,41.600 447.753 C 41.600 447.430,42.015 447.200,42.600 447.200 C 43.222 447.200,43.600 446.973,43.600 446.600 C 43.600 446.200,44.000 446.000,44.800 446.000 C 45.600 446.000,46.000 445.800,46.000 445.400 C 46.000 445.000,46.400 444.800,47.200 444.800 C 48.000 444.800,48.400 444.600,48.400 444.200 C 48.400 443.870,48.670 443.600,49.000 443.600 C 49.330 443.600,49.600 443.330,49.600 443.000 C 49.600 442.600,50.000 442.400,50.800 442.400 C 51.600 442.400,52.000 442.200,52.000 441.800 C 52.000 441.400,52.400 441.200,53.200 441.200 C 54.000 441.200,54.400 441.000,54.400 440.600 C 54.400 440.227,54.778 440.000,55.400 440.000 C 56.022 440.000,56.400 439.773,56.400 439.400 C 56.400 439.070,56.670 438.800,57.000 438.800 C 57.330 438.800,57.600 438.620,57.600 438.400 C 57.600 438.180,58.140 438.000,58.800 438.000 C 59.600 438.000,60.000 437.800,60.000 437.400 C 60.000 437.000,60.400 436.800,61.200 436.800 C 62.000 436.800,62.400 436.600,62.400 436.200 C 62.400 435.800,62.800 435.600,63.600 435.600 C 64.400 435.600,64.800 435.400,64.800 435.000 C 64.800 434.670,65.070 434.400,65.400 434.400 C 65.730 434.400,66.000 434.130,66.000 433.800 C 66.000 433.400,66.400 433.200,67.200 433.200 C 68.000 433.200,68.400 433.000,68.400 432.600 C 68.400 432.227,68.778 432.000,69.400 432.000 C 70.022 432.000,70.400 431.773,70.400 431.400 C 70.400 431.000,70.800 430.800,71.600 430.800 C 72.400 430.800,72.800 430.600,72.800 430.200 C 72.800 429.870,73.070 429.600,73.400 429.600 C 73.730 429.600,74.000 429.330,74.000 429.000 C 74.000 428.600,74.400 428.400,75.200 428.400 C 76.000 428.400,76.400 428.200,76.400 427.800 C 76.400 427.400,76.800 427.200,77.600 427.200 C 78.400 427.200,78.800 427.000,78.800 426.600 C 78.800 426.200,79.200 426.000,80.000 426.000 C 80.800 426.000,81.200 425.800,81.200 425.400 C 81.200 425.070,81.470 424.800,81.800 424.800 C 82.130 424.800,82.400 424.620,82.400 424.400 C 82.400 424.180,82.850 424.000,83.400 424.000 C 84.022 424.000,84.400 423.773,84.400 423.400 C 84.400 423.000,84.800 422.800,85.600 422.800 C 86.400 422.800,86.800 422.600,86.800 422.200 C 86.800 421.870,87.070 421.600,87.400 421.600 C 87.730 421.600,88.000 421.330,88.000 421.000 C 88.000 420.600,88.400 420.400,89.200 420.400 C 90.000 420.400,90.400 420.200,90.400 419.800 C 90.400 419.400,90.800 419.200,91.600 419.200 C 92.400 419.200,92.800 419.000,92.800 418.600 C 92.800 418.200,93.200 418.000,94.000 418.000 C 94.800 418.000,95.200 417.800,95.200 417.400 C 95.200 417.070,95.470 416.800,95.800 416.800 C 96.130 416.800,96.400 416.530,96.400 416.200 C 96.400 415.827,96.778 415.600,97.400 415.600 C 98.022 415.600,98.400 415.373,98.400 415.000 C 98.400 414.600,98.800 414.400,99.600 414.400 C 100.400 414.400,100.800 414.200,100.800 413.800 C 100.800 413.400,101.200 413.200,102.000 413.200 C 102.800 413.200,103.200 413.000,103.200 412.600 C 103.200 412.270,103.470 412.000,103.800 412.000 C 104.130 412.000,104.400 411.820,104.400 411.600 C 104.400 411.380,104.940 411.200,105.600 411.200 C 106.400 411.200,106.800 411.000,106.800 410.600 C 106.800 410.225,107.179 410.000,107.813 410.000 C 108.369 410.000,108.929 409.730,109.055 409.400 C 109.182 409.070,109.716 408.800,110.243 408.800 C 110.827 408.800,111.200 408.566,111.200 408.200 C 111.200 407.870,111.470 407.600,111.800 407.600 C 112.130 407.600,112.400 407.330,112.400 407.000 C 112.400 406.600,112.800 406.400,113.600 406.400 C 114.400 406.400,114.800 406.200,114.800 405.800 C 114.800 405.400,115.200 405.200,116.000 405.200 C 116.800 405.200,117.200 405.000,117.200 404.600 C 117.200 404.200,117.600 404.000,118.400 404.000 C 119.200 404.000,119.600 403.800,119.600 403.400 C 119.600 403.070,119.870 402.800,120.200 402.800 C 120.530 402.800,120.800 402.530,120.800 402.200 C 120.800 401.800,121.200 401.600,122.000 401.600 C 122.800 401.600,123.200 401.400,123.200 401.000 C 123.200 400.627,123.578 400.400,124.200 400.400 C 124.822 400.400,125.200 400.173,125.200 399.800 C 125.200 399.470,125.470 399.200,125.800 399.200 C 126.130 399.200,126.400 398.930,126.400 398.600 C 126.400 398.200,126.800 398.000,127.600 398.000 C 128.260 398.000,128.800 397.820,128.800 397.600 C 128.800 397.380,129.340 397.200,130.000 397.200 C 130.800 397.200,131.200 397.000,131.200 396.600 C 131.200 396.200,131.600 396.000,132.400 396.000 C 133.200 396.000,133.600 395.800,133.600 395.400 C 133.600 395.070,133.870 394.800,134.200 394.800 C 134.530 394.800,134.800 394.530,134.800 394.200 C 134.800 393.800,135.200 393.600,136.000 393.600 C 136.800 393.600,137.200 393.400,137.200 393.000 C 137.200 392.627,137.578 392.400,138.200 392.400 C 138.822 392.400,139.200 392.173,139.200 391.800 C 139.200 391.400,139.600 391.200,140.400 391.200 C 141.200 391.200,141.600 391.000,141.600 390.600 C 141.600 390.270,141.870 390.000,142.200 390.000 C 142.530 390.000,142.800 389.730,142.800 389.400 C 142.800 389.000,143.200 388.800,144.000 388.800 C 144.800 388.800,145.200 388.600,145.200 388.200 C 145.200 387.800,145.600 387.600,146.400 387.600 C 147.200 387.600,147.600 387.400,147.600 387.000 C 147.600 386.600,148.000 386.400,148.800 386.400 C 149.600 386.400,150.000 386.200,150.000 385.800 C 150.000 385.470,150.270 385.200,150.600 385.200 C 150.930 385.200,151.200 384.930,151.200 384.600 C 151.200 384.227,151.578 384.000,152.200 384.000 C 152.750 384.000,153.200 383.820,153.200 383.600 C 153.200 383.380,153.740 383.200,154.400 383.200 C 155.200 383.200,155.600 383.000,155.600 382.600 C 155.600 382.270,155.870 382.000,156.200 382.000 C 156.530 382.000,156.800 381.730,156.800 381.400 C 156.800 381.000,157.200 380.800,158.000 380.800 C 158.800 380.800,159.200 380.600,159.200 380.200 C 159.200 379.800,159.600 379.600,160.400 379.600 C 161.200 379.600,161.600 379.400,161.600 379.000 C 161.600 378.600,162.000 378.400,162.800 378.400 C 163.600 378.400,164.000 378.200,164.000 377.800 C 164.000 377.470,164.270 377.200,164.600 377.200 C 164.930 377.200,165.200 376.930,165.200 376.600 C 165.200 376.227,165.578 376.000,166.200 376.000 C 166.822 376.000,167.200 375.773,167.200 375.400 C 167.200 375.000,167.600 374.800,168.400 374.800 C 169.200 374.800,169.600 374.600,169.600 374.200 C 169.600 373.800,170.000 373.600,170.800 373.600 C 171.600 373.600,172.000 373.400,172.000 373.000 C 172.000 372.670,172.270 372.400,172.600 372.400 C 172.930 372.400,173.200 372.130,173.200 371.800 C 173.200 371.400,173.600 371.200,174.400 371.200 C 175.200 371.200,175.600 371.000,175.600 370.600 C 175.600 370.200,176.000 370.000,176.800 370.000 C 177.460 370.000,178.000 369.820,178.000 369.600 C 178.000 369.380,178.450 369.200,179.000 369.200 C 179.622 369.200,180.000 368.973,180.000 368.600 C 180.000 368.270,180.270 368.000,180.600 368.000 C 180.930 368.000,181.200 367.730,181.200 367.400 C 181.200 367.000,181.600 366.800,182.400 366.800 C 183.200 366.800,183.600 366.600,183.600 366.200 C 183.600 365.800,184.000 365.600,184.800 365.600 C 185.600 365.600,186.000 365.400,186.000 365.000 C 186.000 364.670,186.270 364.400,186.600 364.400 C 186.930 364.400,187.200 364.130,187.200 363.800 C 187.200 363.400,187.600 363.200,188.400 363.200 C 189.200 363.200,189.600 363.000,189.600 362.600 C 189.600 362.200,190.000 362.000,190.800 362.000 C 191.600 362.000,192.000 361.800,192.000 361.400 C 192.000 361.027,192.378 360.800,193.000 360.800 C 193.622 360.800,194.000 360.573,194.000 360.200 C 194.000 359.870,194.270 359.600,194.600 359.600 C 194.930 359.600,195.200 359.330,195.200 359.000 C 195.200 358.600,195.600 358.400,196.400 358.400 C 197.200 358.400,197.600 358.200,197.600 357.800 C 197.600 357.400,198.000 357.200,198.800 357.200 C 199.460 357.200,200.000 357.020,200.000 356.800 C 200.000 356.580,200.540 356.400,201.200 356.400 C 202.000 356.400,202.400 356.200,202.400 355.800 C 202.400 355.470,202.670 355.200,203.000 355.200 C 203.330 355.200,203.600 354.930,203.600 354.600 C 203.600 354.200,204.000 354.000,204.800 354.000 C 205.600 354.000,206.000 353.800,206.000 353.400 C 206.000 353.027,206.378 352.800,207.000 352.800 C 207.622 352.800,208.000 352.573,208.000 352.200 C 208.000 351.800,208.400 351.600,209.200 351.600 C 210.000 351.600,210.400 351.400,210.400 351.000 C 210.400 350.670,210.670 350.400,211.000 350.400 C 211.330 350.400,211.600 350.130,211.600 349.800 C 211.600 349.400,212.000 349.200,212.800 349.200 C 213.600 349.200,214.000 349.000,214.000 348.600 C 214.000 348.200,214.400 348.000,215.200 348.000 C 216.000 348.000,216.400 347.800,216.400 347.400 C 216.400 347.070,216.670 346.800,217.000 346.800 C 217.330 346.800,217.600 346.530,217.600 346.200 C 217.600 345.800,218.000 345.600,218.800 345.600 C 219.600 345.600,220.000 345.400,220.000 345.000 C 220.000 344.627,220.378 344.400,221.000 344.400 C 221.622 344.400,222.000 344.173,222.000 343.800 C 222.000 343.400,222.400 343.200,223.200 343.200 C 223.860 343.200,224.400 343.020,224.400 342.800 C 224.400 342.580,224.670 342.400,225.000 342.400 C 225.330 342.400,225.600 342.130,225.600 341.800 C 225.600 341.400,226.000 341.200,226.800 341.200 C 227.600 341.200,228.000 341.000,228.000 340.600 C 228.000 340.200,228.400 340.000,229.200 340.000 C 230.000 340.000,230.400 339.800,230.400 339.400 C 230.400 339.000,230.800 338.800,231.600 338.800 C 232.400 338.800,232.800 338.600,232.800 338.200 C 232.800 337.870,233.070 337.600,233.400 337.600 C 233.730 337.600,234.000 337.330,234.000 337.000 C 234.000 336.627,234.378 336.400,235.000 336.400 C 235.622 336.400,236.000 336.173,236.000 335.800 C 236.000 335.400,236.400 335.200,237.200 335.200 C 238.000 335.200,238.400 335.000,238.400 334.600 C 238.400 334.270,238.670 334.000,239.000 334.000 C 239.330 334.000,239.600 333.730,239.600 333.400 C 239.600 333.000,240.000 332.800,240.800 332.800 C 241.600 332.800,242.000 332.600,242.000 332.200 C 242.000 331.800,242.400 331.600,243.200 331.600 C 244.000 331.600,244.400 331.400,244.400 331.000 C 244.400 330.600,244.800 330.400,245.600 330.400 C 246.400 330.400,246.800 330.200,246.800 329.800 C 246.800 329.470,247.070 329.200,247.400 329.200 C 247.730 329.200,248.000 329.020,248.000 328.800 C 248.000 328.580,248.450 328.400,249.000 328.400 C 249.622 328.400,250.000 328.173,250.000 327.800 C 250.000 327.400,250.400 327.200,251.200 327.200 C 252.000 327.200,252.400 327.000,252.400 326.600 C 252.400 326.200,252.800 326.000,253.600 326.000 C 254.400 326.000,254.800 325.800,254.800 325.400 C 254.800 325.070,255.070 324.800,255.400 324.800 C 255.730 324.800,256.000 324.530,256.000 324.200 C 256.000 323.800,256.400 323.600,257.200 323.600 C 258.000 323.600,258.400 323.400,258.400 323.000 C 258.400 322.600,258.800 322.400,259.600 322.400 C 260.400 322.400,260.800 322.200,260.800 321.800 C 260.800 321.470,261.070 321.200,261.400 321.200 C 261.730 321.200,262.000 320.930,262.000 320.600 C 262.000 320.227,262.378 320.000,263.000 320.000 C 263.622 320.000,264.000 319.773,264.000 319.400 C 264.000 319.000,264.400 318.800,265.200 318.800 C 266.000 318.800,266.400 318.600,266.400 318.200 C 266.400 317.800,266.800 317.600,267.600 317.600 C 268.400 317.600,268.800 317.400,268.800 317.000 C 268.800 316.670,269.070 316.400,269.400 316.400 C 269.730 316.400,270.000 316.130,270.000 315.800 C 270.000 315.400,270.400 315.200,271.200 315.200 C 271.860 315.200,272.400 315.020,272.400 314.800 C 272.400 314.580,272.856 314.400,273.413 314.400 C 273.969 314.400,274.529 314.130,274.655 313.800 C 274.782 313.470,275.316 313.200,275.843 313.200 C 276.427 313.200,276.800 312.966,276.800 312.600 C 276.800 312.270,277.070 312.000,277.400 312.000 C 277.730 312.000,278.000 311.730,278.000 311.400 C 278.000 311.000,278.400 310.800,279.200 310.800 C 280.000 310.800,280.400 310.600,280.400 310.200 C 280.400 309.800,280.800 309.600,281.600 309.600 C 282.400 309.600,282.800 309.400,282.800 309.000 C 282.800 308.670,283.070 308.400,283.400 308.400 C 283.730 308.400,284.000 308.130,284.000 307.800 C 284.000 307.400,284.400 307.200,285.200 307.200 C 286.000 307.200,286.400 307.000,286.400 306.600 C 286.400 306.200,286.800 306.000,287.600 306.000 C 288.400 306.000,288.800 305.800,288.800 305.400 C 288.800 305.027,289.178 304.800,289.800 304.800 C 290.422 304.800,290.800 304.573,290.800 304.200 C 290.800 303.870,291.070 303.600,291.400 303.600 C 291.730 303.600,292.000 303.330,292.000 303.000 C 292.000 302.600,292.400 302.400,293.200 302.400 C 293.860 302.400,294.400 302.220,294.400 302.000 C 294.400 301.780,294.940 301.600,295.600 301.600 C 296.400 301.600,296.800 301.400,296.800 301.000 C 296.800 300.600,297.200 300.400,298.000 300.400 C 298.800 300.400,299.200 300.200,299.200 299.800 C 299.200 299.470,299.470 299.200,299.800 299.200 C 300.130 299.200,300.400 298.930,300.400 298.600 C 300.400 298.200,300.800 298.000,301.600 298.000 C 302.400 298.000,302.800 297.800,302.800 297.400 C 302.800 297.027,303.178 296.800,303.800 296.800 C 304.422 296.800,304.800 296.573,304.800 296.200 C 304.800 295.870,305.070 295.600,305.400 295.600 C 305.730 295.600,306.000 295.330,306.000 295.000 C 306.000 294.600,306.400 294.400,307.200 294.400 C 308.000 294.400,308.400 294.200,308.400 293.800 C 308.400 293.400,308.800 293.200,309.600 293.200 C 310.400 293.200,310.800 293.000,310.800 292.600 C 310.800 292.200,311.200 292.000,312.000 292.000 C 312.800 292.000,313.200 291.800,313.200 291.400 C 313.200 291.070,313.470 290.800,313.800 290.800 C 314.130 290.800,314.400 290.530,314.400 290.200 C 314.400 289.800,314.800 289.600,315.600 289.600 C 316.400 289.600,316.800 289.400,316.800 289.000 C 316.800 288.627,317.178 288.400,317.800 288.400 C 318.350 288.400,318.800 288.220,318.800 288.000 C 318.800 287.780,319.340 287.600,320.000 287.600 C 320.800 287.600,321.200 287.400,321.200 287.000 C 321.200 286.670,321.470 286.400,321.800 286.400 C 322.130 286.400,322.400 286.130,322.400 285.800 C 322.400 285.400,322.800 285.200,323.600 285.200 C 324.400 285.200,324.800 285.000,324.800 284.600 C 324.800 284.200,325.200 284.000,326.000 284.000 C 326.800 284.000,327.200 283.800,327.200 283.400 C 327.200 283.070,327.470 282.800,327.800 282.800 C 328.130 282.800,328.400 282.530,328.400 282.200 C 328.400 281.800,328.800 281.600,329.600 281.600 C 330.400 281.600,330.800 281.400,330.800 281.000 C 330.800 280.627,331.178 280.400,331.800 280.400 C 332.422 280.400,332.800 280.173,332.800 279.800 C 332.800 279.400,333.200 279.200,334.000 279.200 C 334.800 279.200,335.200 279.000,335.200 278.600 C 335.200 278.270,335.470 278.000,335.800 278.000 C 336.130 278.000,336.400 277.730,336.400 277.400 C 336.400 277.000,336.800 276.800,337.600 276.800 C 338.400 276.800,338.800 276.600,338.800 276.200 C 338.800 275.800,339.200 275.600,340.000 275.600 C 340.800 275.600,341.200 275.400,341.200 275.000 C 341.200 274.618,341.584 274.400,342.254 274.400 C 342.865 274.400,343.698 273.979,344.235 273.400 C 344.745 272.850,345.530 272.400,345.981 272.400 C 346.442 272.400,346.800 272.138,346.800 271.800 C 346.800 271.400,347.200 271.200,348.000 271.200 C 348.800 271.200,349.200 271.000,349.200 270.600 C 349.200 270.270,349.470 270.000,349.800 270.000 C 350.130 270.000,350.400 269.730,350.400 269.400 C 350.400 269.000,350.800 268.800,351.600 268.800 C 352.400 268.800,352.800 268.600,352.800 268.200 C 352.800 267.800,353.200 267.600,354.000 267.600 C 354.800 267.600,355.200 267.400,355.200 267.000 C 355.200 266.600,355.600 266.400,356.400 266.400 C 357.200 266.400,357.600 266.200,357.600 265.800 C 357.600 265.470,357.870 265.200,358.200 265.200 C 358.530 265.200,358.800 264.930,358.800 264.600 C 358.800 264.227,359.178 264.000,359.800 264.000 C 360.422 264.000,360.800 263.773,360.800 263.400 C 360.800 263.000,361.200 262.800,362.000 262.800 C 362.800 262.800,363.200 262.600,363.200 262.200 C 363.200 261.800,363.600 261.600,364.400 261.600 C 365.200 261.600,365.600 261.400,365.600 261.000 C 365.600 260.670,365.870 260.400,366.200 260.400 C 366.530 260.400,366.800 260.220,366.800 260.000 C 366.800 259.780,367.340 259.600,368.000 259.600 C 368.800 259.600,369.200 259.400,369.200 259.000 C 369.200 258.642,369.568 258.400,370.111 258.400 C 371.004 258.400,372.400 257.177,372.400 256.395 C 372.400 256.178,372.940 256.000,373.600 256.000 C 374.400 256.000,374.800 255.800,374.800 255.400 C 374.800 255.000,375.200 254.800,376.000 254.800 C 376.800 254.800,377.200 254.600,377.200 254.200 C 377.200 253.800,377.600 253.600,378.400 253.600 C 379.200 253.600,379.600 253.400,379.600 253.000 C 379.600 252.670,379.870 252.400,380.200 252.400 C 380.530 252.400,380.800 252.130,380.800 251.800 C 380.800 251.400,381.200 251.200,382.000 251.200 C 382.800 251.200,383.200 251.000,383.200 250.600 C 383.200 250.200,383.600 250.000,384.400 250.000 C 385.200 250.000,385.600 249.800,385.600 249.400 C 385.600 249.027,385.978 248.800,386.600 248.800 C 387.222 248.800,387.600 248.573,387.600 248.200 C 387.600 247.870,387.870 247.600,388.200 247.600 C 388.530 247.600,388.800 247.420,388.800 247.200 C 388.800 246.980,389.340 246.800,390.000 246.800 C 390.800 246.800,391.200 246.600,391.200 246.200 C 391.200 245.870,391.470 245.600,391.800 245.600 C 392.130 245.600,392.400 245.330,392.400 245.000 C 392.400 244.670,392.670 244.400,393.000 244.400 C 393.330 244.400,393.600 244.130,393.600 243.800 C 393.600 243.470,393.870 243.200,394.200 243.200 C 394.600 243.200,394.800 242.800,394.800 242.000 C 394.800 241.200,395.000 240.800,395.400 240.800 C 395.730 240.800,396.000 240.530,396.000 240.200 C 396.000 239.870,396.270 239.600,396.600 239.600 C 397.000 239.600,397.200 239.200,397.200 238.400 C 397.200 237.600,397.400 237.200,397.800 237.200 C 398.200 237.200,398.400 236.800,398.400 236.000 C 398.400 235.256,398.606 234.800,398.943 234.800 C 399.613 234.800,399.985 228.375,399.691 221.900 C 399.542 218.623,399.365 217.600,398.948 217.600 C 398.606 217.600,398.400 217.149,398.400 216.400 C 398.400 215.600,398.200 215.200,397.800 215.200 C 397.400 215.200,397.200 214.800,397.200 214.000 C 397.200 213.200,397.000 212.800,396.600 212.800 C 396.270 212.800,396.000 212.530,396.000 212.200 C 396.000 211.870,395.730 211.600,395.400 211.600 C 395.000 211.600,394.800 211.200,394.800 210.400 C 394.800 209.600,394.600 209.200,394.200 209.200 C 393.870 209.200,393.600 209.020,393.600 208.800 C 393.600 208.580,393.330 208.400,393.000 208.400 C 392.670 208.400,392.400 208.130,392.400 207.800 C 392.400 207.400,392.000 207.200,391.200 207.200 C 390.400 207.200,390.000 207.000,390.000 206.600 C 390.000 206.270,389.730 206.000,389.400 206.000 C 389.070 206.000,388.800 205.730,388.800 205.400 C 388.800 205.000,388.400 204.800,387.600 204.800 C 386.800 204.800,386.400 204.600,386.400 204.200 C 386.400 203.870,386.220 203.600,386.000 203.600 C 385.780 203.600,385.600 203.330,385.600 203.000 C 385.600 202.600,385.200 202.400,384.400 202.400 C 383.600 202.400,383.200 202.200,383.200 201.800 C 383.200 201.400,382.800 201.200,382.000 201.200 C 381.200 201.200,380.800 201.000,380.800 200.600 C 380.800 200.270,380.530 200.000,380.200 200.000 C 379.870 200.000,379.600 199.730,379.600 199.400 C 379.600 199.000,379.200 198.800,378.400 198.800 C 377.600 198.800,377.200 198.600,377.200 198.200 C 377.200 197.800,376.800 197.600,376.000 197.600 C 375.200 197.600,374.800 197.400,374.800 197.000 C 374.800 196.600,374.400 196.400,373.600 196.400 C 372.940 196.400,372.400 196.207,372.400 195.971 C 372.400 195.208,371.283 194.400,370.229 194.400 C 369.581 194.400,369.200 194.178,369.200 193.800 C 369.200 193.400,368.800 193.200,368.000 193.200 C 367.200 193.200,366.800 193.000,366.800 192.600 C 366.800 192.200,366.400 192.000,365.600 192.000 C 364.800 192.000,364.400 191.800,364.400 191.400 C 364.400 191.070,364.130 190.800,363.800 190.800 C 363.470 190.800,363.200 190.530,363.200 190.200 C 363.200 189.800,362.800 189.600,362.000 189.600 C 361.200 189.600,360.800 189.400,360.800 189.000 C 360.800 188.627,360.422 188.400,359.800 188.400 C 359.178 188.400,358.800 188.173,358.800 187.800 C 358.800 187.400,358.400 187.200,357.600 187.200 C 356.800 187.200,356.400 187.000,356.400 186.600 C 356.400 186.270,356.130 186.000,355.800 186.000 C 355.470 186.000,355.200 185.730,355.200 185.400 C 355.200 185.000,354.800 184.800,354.000 184.800 C 353.200 184.800,352.800 184.600,352.800 184.200 C 352.800 183.800,352.400 183.600,351.600 183.600 C 350.800 183.600,350.400 183.400,350.400 183.000 C 350.400 182.670,350.130 182.400,349.800 182.400 C 349.470 182.400,349.200 182.130,349.200 181.800 C 349.200 181.400,348.800 181.200,348.000 181.200 C 347.340 181.200,346.800 181.020,346.800 180.800 C 346.800 180.580,346.350 180.400,345.800 180.400 C 345.178 180.400,344.800 180.173,344.800 179.800 C 344.800 179.400,344.400 179.200,343.600 179.200 C 342.800 179.200,342.400 179.000,342.400 178.600 C 342.400 178.270,342.130 178.000,341.800 178.000 C 341.470 178.000,341.200 177.730,341.200 177.400 C 341.200 177.000,340.800 176.800,340.000 176.800 C 339.200 176.800,338.800 176.600,338.800 176.200 C 338.800 175.800,338.400 175.600,337.600 175.600 C 336.800 175.600,336.400 175.400,336.400 175.000 C 336.400 174.600,336.000 174.400,335.200 174.400 C 334.400 174.400,334.000 174.200,334.000 173.800 C 334.000 173.470,333.730 173.200,333.400 173.200 C 333.070 173.200,332.800 172.930,332.800 172.600 C 332.800 172.227,332.422 172.000,331.800 172.000 C 331.178 172.000,330.800 171.773,330.800 171.400 C 330.800 171.000,330.400 170.800,329.600 170.800 C 328.800 170.800,328.400 170.600,328.400 170.200 C 328.400 169.800,328.000 169.600,327.200 169.600 C 326.400 169.600,326.000 169.400,326.000 169.000 C 326.000 168.670,325.730 168.400,325.400 168.400 C 325.070 168.400,324.800 168.130,324.800 167.800 C 324.800 167.400,324.400 167.200,323.600 167.200 C 322.940 167.200,322.400 167.020,322.400 166.800 C 322.400 166.580,321.860 166.400,321.200 166.400 C 320.400 166.400,320.000 166.200,320.000 165.800 C 320.000 165.470,319.730 165.200,319.400 165.200 C 319.070 165.200,318.800 164.930,318.800 164.600 C 318.800 164.227,318.422 164.000,317.800 164.000 C 317.178 164.000,316.800 163.773,316.800 163.400 C 316.800 163.000,316.400 162.800,315.600 162.800 C 314.800 162.800,314.400 162.600,314.400 162.200 C 314.400 161.800,314.000 161.600,313.200 161.600 C 312.400 161.600,312.000 161.400,312.000 161.000 C 312.000 160.670,311.730 160.400,311.400 160.400 C 311.070 160.400,310.800 160.130,310.800 159.800 C 310.800 159.400,310.400 159.200,309.600 159.200 C 308.800 159.200,308.400 159.000,308.400 158.600 C 308.400 158.200,308.000 158.000,307.200 158.000 C 306.400 158.000,306.000 157.800,306.000 157.400 C 306.000 157.000,305.600 156.800,304.800 156.800 C 304.140 156.800,303.600 156.622,303.600 156.405 C 303.600 155.623,302.204 154.400,301.311 154.400 C 300.768 154.400,300.400 154.158,300.400 153.800 C 300.400 153.400,300.000 153.200,299.200 153.200 C 298.540 153.200,298.000 153.020,298.000 152.800 C 298.000 152.580,297.730 152.400,297.400 152.400 C 297.070 152.400,296.800 152.130,296.800 151.800 C 296.800 151.400,296.400 151.200,295.600 151.200 C 294.800 151.200,294.400 151.000,294.400 150.600 C 294.400 150.200,294.000 150.000,293.200 150.000 C 292.400 150.000,292.000 149.800,292.000 149.400 C 292.000 149.000,291.600 148.800,290.800 148.800 C 290.000 148.800,289.600 148.600,289.600 148.200 C 289.600 147.870,289.420 147.600,289.200 147.600 C 288.980 147.600,288.800 147.330,288.800 147.000 C 288.800 146.600,288.400 146.400,287.600 146.400 C 286.800 146.400,286.400 146.200,286.400 145.800 C 286.400 145.400,286.000 145.200,285.200 145.200 C 284.400 145.200,284.000 145.000,284.000 144.600 C 284.000 144.200,283.600 144.000,282.800 144.000 C 282.000 144.000,281.600 143.800,281.600 143.400 C 281.600 143.070,281.330 142.800,281.000 142.800 C 280.670 142.800,280.400 142.530,280.400 142.200 C 280.400 141.800,280.000 141.600,279.200 141.600 C 278.400 141.600,278.000 141.400,278.000 141.000 C 278.000 140.627,277.622 140.400,277.000 140.400 C 276.450 140.400,276.000 140.220,276.000 140.000 C 276.000 139.780,275.460 139.600,274.800 139.600 C 274.000 139.600,273.600 139.400,273.600 139.000 C 273.600 138.670,273.330 138.400,273.000 138.400 C 272.670 138.400,272.400 138.130,272.400 137.800 C 272.400 137.400,272.000 137.200,271.200 137.200 C 270.400 137.200,270.000 137.000,270.000 136.600 C 270.000 136.200,269.600 136.000,268.800 136.000 C 268.000 136.000,267.600 135.800,267.600 135.400 C 267.600 135.070,267.330 134.800,267.000 134.800 C 266.670 134.800,266.400 134.530,266.400 134.200 C 266.400 133.800,266.000 133.600,265.200 133.600 C 264.400 133.600,264.000 133.400,264.000 133.000 C 264.000 132.627,263.622 132.400,263.000 132.400 C 262.378 132.400,262.000 132.173,262.000 131.800 C 262.000 131.400,261.600 131.200,260.800 131.200 C 260.000 131.200,259.600 131.000,259.600 130.600 C 259.600 130.270,259.330 130.000,259.000 130.000 C 258.670 130.000,258.400 129.730,258.400 129.400 C 258.400 129.000,258.000 128.800,257.200 128.800 C 256.400 128.800,256.000 128.600,256.000 128.200 C 256.000 127.800,255.600 127.600,254.800 127.600 C 254.000 127.600,253.600 127.400,253.600 127.000 C 253.600 126.600,253.200 126.400,252.400 126.400 C 251.740 126.400,251.200 126.220,251.200 126.000 C 251.200 125.780,250.930 125.600,250.600 125.600 C 250.270 125.600,250.000 125.330,250.000 125.000 C 250.000 124.627,249.622 124.400,249.000 124.400 C 248.378 124.400,248.000 124.173,248.000 123.800 C 248.000 123.400,247.600 123.200,246.800 123.200 C 246.000 123.200,245.600 123.000,245.600 122.600 C 245.600 122.200,245.200 122.000,244.400 122.000 C 243.600 122.000,243.200 121.800,243.200 121.400 C 243.200 121.070,242.930 120.800,242.600 120.800 C 242.270 120.800,242.000 120.530,242.000 120.200 C 242.000 119.800,241.600 119.600,240.800 119.600 C 240.000 119.600,239.600 119.400,239.600 119.000 C 239.600 118.600,239.200 118.400,238.400 118.400 C 237.600 118.400,237.200 118.200,237.200 117.800 C 237.200 117.470,236.930 117.200,236.600 117.200 C 236.270 117.200,236.000 116.930,236.000 116.600 C 236.000 116.227,235.622 116.000,235.000 116.000 C 234.378 116.000,234.000 115.773,234.000 115.400 C 234.000 115.000,233.600 114.800,232.800 114.800 C 232.000 114.800,231.600 114.600,231.600 114.200 C 231.600 113.800,231.200 113.600,230.400 113.600 C 229.600 113.600,229.200 113.400,229.200 113.000 C 229.200 112.670,228.930 112.400,228.600 112.400 C 228.270 112.400,228.000 112.220,228.000 112.000 C 228.000 111.780,227.460 111.600,226.800 111.600 C 226.000 111.600,225.600 111.400,225.600 111.000 C 225.600 110.600,225.200 110.400,224.400 110.400 C 223.600 110.400,223.200 110.200,223.200 109.800 C 223.200 109.400,222.800 109.200,222.000 109.200 C 221.200 109.200,220.800 109.000,220.800 108.600 C 220.800 108.270,220.620 108.000,220.400 108.000 C 220.180 108.000,220.000 107.730,220.000 107.400 C 220.000 107.000,219.600 106.800,218.800 106.800 C 218.000 106.800,217.600 106.600,217.600 106.200 C 217.600 105.800,217.200 105.600,216.400 105.600 C 215.600 105.600,215.200 105.400,215.200 105.000 C 215.200 104.600,214.800 104.400,214.000 104.400 C 213.200 104.400,212.800 104.200,212.800 103.800 C 212.800 103.470,212.530 103.200,212.200 103.200 C 211.870 103.200,211.600 102.930,211.600 102.600 C 211.600 102.200,211.200 102.000,210.400 102.000 C 209.600 102.000,209.200 101.800,209.200 101.400 C 209.200 101.000,208.800 100.800,208.000 100.800 C 207.340 100.800,206.800 100.622,206.800 100.405 C 206.800 99.623,205.404 98.400,204.511 98.400 C 204.010 98.400,203.600 98.220,203.600 98.000 C 203.600 97.780,203.060 97.600,202.400 97.600 C 201.600 97.600,201.200 97.400,201.200 97.000 C 201.200 96.600,200.800 96.400,200.000 96.400 C 199.200 96.400,198.800 96.200,198.800 95.800 C 198.800 95.470,198.530 95.200,198.200 95.200 C 197.870 95.200,197.600 94.930,197.600 94.600 C 197.600 94.200,197.200 94.000,196.400 94.000 C 195.600 94.000,195.200 93.800,195.200 93.400 C 195.200 93.027,194.822 92.800,194.200 92.800 C 193.578 92.800,193.200 92.573,193.200 92.200 C 193.200 91.800,192.800 91.600,192.000 91.600 C 191.200 91.600,190.800 91.400,190.800 91.000 C 190.800 90.670,190.530 90.400,190.200 90.400 C 189.870 90.400,189.600 90.130,189.600 89.800 C 189.600 89.400,189.200 89.200,188.400 89.200 C 187.600 89.200,187.200 89.000,187.200 88.600 C 187.200 88.200,186.800 88.000,186.000 88.000 C 185.200 88.000,184.800 87.800,184.800 87.400 C 184.800 87.000,184.400 86.800,183.600 86.800 C 182.800 86.800,182.400 86.600,182.400 86.200 C 182.400 85.870,182.130 85.600,181.800 85.600 C 181.470 85.600,181.200 85.420,181.200 85.200 C 181.200 84.980,180.750 84.800,180.200 84.800 C 179.578 84.800,179.200 84.573,179.200 84.200 C 179.200 83.800,178.800 83.600,178.000 83.600 C 177.200 83.600,176.800 83.400,176.800 83.000 C 176.800 82.670,176.530 82.400,176.200 82.400 C 175.870 82.400,175.600 82.130,175.600 81.800 C 175.600 81.400,175.200 81.200,174.400 81.200 C 173.600 81.200,173.200 81.000,173.200 80.600 C 173.200 80.200,172.800 80.000,172.000 80.000 C 171.200 80.000,170.800 79.800,170.800 79.400 C 170.800 79.000,170.400 78.800,169.600 78.800 C 168.800 78.800,168.400 78.600,168.400 78.200 C 168.400 77.870,168.130 77.600,167.800 77.600 C 167.470 77.600,167.200 77.330,167.200 77.000 C 167.200 76.627,166.822 76.400,166.200 76.400 C 165.578 76.400,165.200 76.173,165.200 75.800 C 165.200 75.400,164.800 75.200,164.000 75.200 C 163.200 75.200,162.800 75.000,162.800 74.600 C 162.800 74.200,162.400 74.000,161.600 74.000 C 160.800 74.000,160.400 73.800,160.400 73.400 C 160.400 73.070,160.130 72.800,159.800 72.800 C 159.470 72.800,159.200 72.530,159.200 72.200 C 159.200 71.800,158.800 71.600,158.000 71.600 C 157.340 71.600,156.800 71.420,156.800 71.200 C 156.800 70.980,156.260 70.800,155.600 70.800 C 154.800 70.800,154.400 70.600,154.400 70.200 C 154.400 69.800,154.000 69.600,153.200 69.600 C 152.400 69.600,152.000 69.400,152.000 69.000 C 152.000 68.670,151.820 68.400,151.600 68.400 C 151.380 68.400,151.200 68.130,151.200 67.800 C 151.200 67.400,150.800 67.200,150.000 67.200 C 149.200 67.200,148.800 67.000,148.800 66.600 C 148.800 66.200,148.400 66.000,147.600 66.000 C 146.800 66.000,146.400 65.800,146.400 65.400 C 146.400 65.070,146.130 64.800,145.800 64.800 C 145.470 64.800,145.200 64.530,145.200 64.200 C 145.200 63.800,144.800 63.600,144.000 63.600 C 143.200 63.600,142.800 63.400,142.800 63.000 C 142.800 62.600,142.400 62.400,141.600 62.400 C 140.800 62.400,140.400 62.200,140.400 61.800 C 140.400 61.400,140.000 61.200,139.200 61.200 C 138.540 61.200,138.000 61.022,138.000 60.805 C 138.000 60.023,136.604 58.800,135.711 58.800 C 135.168 58.800,134.800 58.558,134.800 58.200 C 134.800 57.800,134.400 57.600,133.600 57.600 C 132.940 57.600,132.400 57.420,132.400 57.200 C 132.400 56.980,131.860 56.800,131.200 56.800 C 130.400 56.800,130.000 56.600,130.000 56.200 C 130.000 55.870,129.730 55.600,129.400 55.600 C 129.070 55.600,128.800 55.330,128.800 55.000 C 128.800 54.600,128.400 54.400,127.600 54.400 C 126.800 54.400,126.400 54.200,126.400 53.800 C 126.400 53.400,126.000 53.200,125.200 53.200 C 124.400 53.200,124.000 53.000,124.000 52.600 C 124.000 52.227,123.622 52.000,123.000 52.000 C 122.378 52.000,122.000 51.773,122.000 51.400 C 122.000 51.070,121.730 50.800,121.400 50.800 C 121.070 50.800,120.800 50.530,120.800 50.200 C 120.800 49.800,120.400 49.600,119.600 49.600 C 118.800 49.600,118.400 49.400,118.400 49.000 C 118.400 48.600,118.000 48.400,117.200 48.400 C 116.400 48.400,116.000 48.200,116.000 47.800 C 116.000 47.470,115.730 47.200,115.400 47.200 C 115.070 47.200,114.800 46.930,114.800 46.600 C 114.800 46.200,114.400 46.000,113.600 46.000 C 112.800 46.000,112.400 45.800,112.400 45.400 C 112.400 45.034,112.027 44.800,111.443 44.800 C 110.916 44.800,110.382 44.530,110.255 44.200 C 110.129 43.870,109.569 43.600,109.013 43.600 C 108.456 43.600,108.000 43.420,108.000 43.200 C 108.000 42.980,107.730 42.800,107.400 42.800 C 107.070 42.800,106.800 42.530,106.800 42.200 C 106.800 41.800,106.400 41.600,105.600 41.600 C 104.800 41.600,104.400 41.400,104.400 41.000 C 104.400 40.600,104.000 40.400,103.200 40.400 C 102.400 40.400,102.000 40.200,102.000 39.800 C 102.000 39.400,101.600 39.200,100.800 39.200 C 100.000 39.200,99.600 39.000,99.600 38.600 C 99.600 38.270,99.330 38.000,99.000 38.000 C 98.670 38.000,98.400 37.730,98.400 37.400 C 98.400 37.027,98.022 36.800,97.400 36.800 C 96.778 36.800,96.400 36.573,96.400 36.200 C 96.400 35.800,96.000 35.600,95.200 35.600 C 94.400 35.600,94.000 35.400,94.000 35.000 C 94.000 34.670,93.730 34.400,93.400 34.400 C 93.070 34.400,92.800 34.130,92.800 33.800 C 92.800 33.400,92.400 33.200,91.600 33.200 C 90.800 33.200,90.400 33.000,90.400 32.600 C 90.400 32.200,90.000 32.000,89.200 32.000 C 88.400 32.000,88.000 31.800,88.000 31.400 C 88.000 31.000,87.600 30.800,86.800 30.800 C 86.140 30.800,85.600 30.620,85.600 30.400 C 85.600 30.180,85.330 30.000,85.000 30.000 C 84.670 30.000,84.400 29.730,84.400 29.400 C 84.400 29.027,84.022 28.800,83.400 28.800 C 82.778 28.800,82.400 28.573,82.400 28.200 C 82.400 27.800,82.000 27.600,81.200 27.600 C 80.400 27.600,80.000 27.400,80.000 27.000 C 80.000 26.600,79.600 26.400,78.800 26.400 C 78.000 26.400,77.600 26.200,77.600 25.800 C 77.600 25.470,77.330 25.200,77.000 25.200 C 76.670 25.200,76.400 24.930,76.400 24.600 C 76.400 24.200,76.000 24.000,75.200 24.000 C 74.400 24.000,74.000 23.800,74.000 23.400 C 74.000 23.000,73.600 22.800,72.800 22.800 C 72.000 22.800,71.600 22.600,71.600 22.200 C 71.600 21.800,71.200 21.600,70.400 21.600 C 69.600 21.600,69.200 21.400,69.200 21.000 C 69.200 20.670,69.020 20.400,68.800 20.400 C 68.580 20.400,68.400 20.130,68.400 19.800 C 68.400 19.400,68.000 19.200,67.200 19.200 C 66.400 19.200,66.000 19.000,66.000 18.600 C 66.000 18.200,65.600 18.000,64.800 18.000 C 64.000 18.000,63.600 17.800,63.600 17.400 C 63.600 17.070,63.330 16.800,63.000 16.800 C 62.670 16.800,62.400 16.620,62.400 16.400 C 62.400 16.180,61.860 16.000,61.200 16.000 C 60.400 16.000,60.000 15.800,60.000 15.400 C 60.000 15.000,59.600 14.800,58.800 14.800 C 58.000 14.800,57.600 14.600,57.600 14.200 C 57.600 13.800,57.200 13.600,56.400 13.600 C 55.600 13.600,55.200 13.400,55.200 13.000 C 55.200 12.670,55.020 12.400,54.800 12.400 C 54.580 12.400,54.400 12.130,54.400 11.800 C 54.400 11.400,54.000 11.200,53.200 11.200 C 52.400 11.200,52.000 11.000,52.000 10.600 C 52.000 10.200,51.600 10.000,50.800 10.000 C 50.000 10.000,49.600 9.800,49.600 9.400 C 49.600 9.000,49.200 8.800,48.400 8.800 C 47.600 8.800,47.200 8.600,47.200 8.200 C 47.200 7.870,46.930 7.600,46.600 7.600 C 46.270 7.600,46.000 7.330,46.000 7.000 C 46.000 6.600,45.600 6.400,44.800 6.400 C 44.000 6.400,43.600 6.200,43.600 5.800 C 43.600 5.434,43.227 5.200,42.643 5.200 C 42.116 5.200,41.582 4.930,41.455 4.600 C 41.329 4.270,40.789 4.000,40.255 4.000 C 39.722 4.000,39.182 3.730,39.055 3.400 C 38.929 3.070,38.369 2.800,37.813 2.800 C 37.256 2.800,36.800 2.620,36.800 2.400 C 36.800 2.180,36.260 2.000,35.600 2.000 C 34.800 2.000,34.400 1.800,34.400 1.400 C 34.400 0.914,33.756 0.800,31.000 0.800 C 29.000 0.800,27.600 0.635,27.600 0.400 C 27.600 0.180,26.790 0.000,25.800 0.000 C 24.810 0.000,24.000 0.180,24.000 0.400 M132.772 92.840 C 134.217 93.303,135.760 93.818,136.200 93.986 C 136.640 94.154,137.990 94.609,139.200 94.999 C 147.868 97.788,153.454 101.603,155.617 106.209 C 157.918 111.110,156.583 122.960,153.094 128.598 C 146.718 138.902,140.605 141.192,129.000 137.622 C 127.460 137.148,125.660 136.605,125.000 136.415 C 123.474 135.977,121.355 135.219,119.740 134.534 C 119.046 134.240,118.221 134.000,117.906 134.000 C 117.591 134.000,117.225 133.892,117.093 133.759 C 116.960 133.627,114.996 132.766,112.729 131.846 C 110.128 130.791,108.559 129.931,108.479 129.517 C 108.156 127.835,117.576 109.790,123.707 100.348 C 124.902 98.506,126.363 96.229,126.954 95.286 C 129.169 91.751,129.253 91.715,132.772 92.840 " stroke="none" fill="#ffffff" fill-rule="evenodd"></path><path id="path1" d="" stroke="none" fill="#003399" fill-rule="evenodd"></path><path id="path2" d="M0.000 367.000 C 0.000 367.770,0.180 368.400,0.400 368.400 C 0.620 368.400,0.800 367.770,0.800 367.000 C 0.800 366.230,0.620 365.600,0.400 365.600 C 0.180 365.600,0.000 366.230,0.000 367.000 " stroke="none" fill="#1177dd" fill-rule="evenodd"></path><path id="path3" d="M128.814 92.786 C 128.381 93.219,127.544 94.344,126.954 95.286 C 126.363 96.229,124.902 98.506,123.707 100.348 C 117.576 109.790,108.156 127.835,108.479 129.517 C 108.559 129.931,110.128 130.791,112.729 131.846 C 114.996 132.766,116.960 133.627,117.093 133.759 C 117.225 133.892,117.591 134.000,117.906 134.000 C 118.221 134.000,119.046 134.240,119.740 134.534 C 121.355 135.219,123.474 135.977,125.000 136.415 C 125.660 136.605,127.460 137.148,129.000 137.622 C 140.605 141.192,146.718 138.902,153.094 128.598 C 156.583 122.960,157.918 111.110,155.617 106.209 C 153.454 101.603,147.868 97.788,139.200 94.999 C 137.990 94.609,136.640 94.154,136.200 93.986 C 134.853 93.473,130.160 92.000,129.872 92.000 C 129.722 92.000,129.246 92.354,128.814 92.786 M203.200 207.460 C 201.839 207.643,198.445 208.636,195.599 209.684 C 194.230 210.188,190.397 212.298,190.000 212.766 C 189.890 212.896,189.068 213.498,188.174 214.105 C 186.207 215.437,181.331 220.359,178.136 224.235 C 176.851 225.795,175.170 227.837,174.400 228.774 C 173.630 229.711,172.837 230.820,172.639 231.239 C 172.440 231.657,172.133 232.000,171.957 232.000 C 171.352 232.000,171.054 234.862,171.622 235.214 C 172.338 235.656,174.581 234.416,176.800 232.350 C 186.884 222.961,198.257 220.422,211.000 224.713 C 211.660 224.935,213.280 225.420,214.600 225.789 C 215.920 226.159,217.360 226.619,217.800 226.811 C 218.240 227.004,220.490 227.796,222.800 228.572 C 229.000 230.656,230.513 231.184,231.400 231.572 C 231.840 231.764,233.315 232.318,234.678 232.801 C 237.488 233.799,237.511 234.240,234.849 236.027 C 234.052 236.562,233.220 237.138,233.000 237.307 C 227.581 241.464,207.539 255.093,201.120 258.988 C 200.746 259.214,198.766 260.446,196.720 261.725 C 192.020 264.662,192.609 264.304,187.200 267.516 C 184.670 269.018,182.330 270.373,182.000 270.528 C 181.670 270.684,180.680 271.225,179.800 271.731 C 171.763 276.356,158.039 283.423,148.200 288.003 C 142.132 290.827,140.369 291.600,139.994 291.600 C 139.771 291.600,139.277 291.769,138.895 291.975 C 137.403 292.780,132.582 294.817,129.800 295.818 C 128.700 296.214,127.620 296.661,127.400 296.811 C 127.180 296.961,126.640 297.185,126.200 297.308 C 125.760 297.432,124.410 297.921,123.200 298.396 C 121.990 298.871,120.550 299.415,120.000 299.605 C 119.450 299.795,117.200 300.602,115.000 301.400 C 112.800 302.197,110.460 303.005,109.800 303.195 C 109.140 303.385,107.430 303.927,106.000 304.400 C 104.570 304.873,102.860 305.414,102.200 305.602 C 101.540 305.790,100.055 306.227,98.900 306.572 C 93.886 308.071,92.346 308.505,88.000 309.645 C 85.470 310.309,81.600 311.292,79.400 311.830 C 77.200 312.368,74.770 312.972,74.000 313.172 C 72.651 313.523,69.072 314.295,63.600 315.414 C 54.859 317.202,50.537 317.979,43.600 319.010 C 41.290 319.353,38.320 319.810,37.000 320.025 C 35.680 320.240,32.800 320.595,30.600 320.814 C 28.400 321.033,26.306 321.305,25.948 321.418 C 25.274 321.630,21.490 321.978,8.856 322.987 C 4.817 323.310,1.172 323.682,0.756 323.814 C -0.202 324.118,-0.456 363.594,0.500 363.606 C 0.866 363.611,0.854 363.705,0.455 363.958 C -0.006 364.249,-0.006 364.337,0.455 364.521 C 0.902 364.700,0.892 364.815,0.400 365.163 C -0.007 365.451,-0.039 365.590,0.300 365.594 C 0.588 365.597,0.800 366.110,0.800 366.800 C 0.800 367.970,1.667 368.374,3.400 368.011 C 3.620 367.965,5.870 367.683,8.400 367.385 C 13.937 366.733,18.365 366.100,20.800 365.612 C 21.790 365.413,23.500 365.139,24.600 365.003 C 28.406 364.532,39.427 362.319,44.600 360.986 C 48.423 360.001,51.810 359.102,53.600 358.596 C 54.590 358.317,56.480 357.786,57.800 357.417 C 59.120 357.048,60.920 356.509,61.800 356.219 C 62.680 355.930,64.480 355.378,65.800 354.992 C 69.147 354.016,85.333 348.617,88.000 347.589 C 89.210 347.122,90.650 346.595,91.200 346.417 C 91.750 346.240,92.650 345.913,93.200 345.691 C 93.750 345.469,94.920 345.016,95.800 344.685 C 97.313 344.115,102.868 341.902,104.600 341.178 C 108.799 339.424,109.774 339.001,113.728 337.225 C 115.228 336.551,116.523 336.000,116.604 336.000 C 116.758 336.000,128.941 330.222,130.000 329.647 C 130.330 329.468,133.480 327.827,137.000 326.000 C 140.520 324.174,144.030 322.284,144.800 321.800 C 145.570 321.316,147.460 320.231,149.000 319.390 C 156.915 315.064,174.031 304.128,187.800 294.601 C 189.340 293.535,191.625 291.975,192.879 291.133 C 194.132 290.291,200.432 285.496,206.879 280.477 C 218.296 271.589,231.993 260.911,234.805 258.706 C 239.306 255.176,247.677 248.953,252.000 245.924 C 254.750 243.997,257.180 242.275,257.400 242.097 C 257.620 241.920,258.520 241.340,259.400 240.808 C 260.280 240.277,261.090 239.734,261.200 239.602 C 261.310 239.471,263.219 238.246,265.442 236.881 C 269.450 234.420,274.149 229.984,275.352 227.525 C 275.493 227.236,275.965 226.460,276.400 225.800 C 276.835 225.140,277.296 224.330,277.425 224.000 C 277.553 223.670,277.845 223.056,278.073 222.635 C 281.541 216.239,279.847 213.981,272.886 215.721 C 264.687 217.771,257.993 217.893,249.000 216.156 C 245.704 215.519,245.350 215.439,239.600 214.025 C 236.216 213.192,235.390 212.978,231.200 211.842 C 216.983 207.988,214.883 207.561,209.402 207.407 C 206.761 207.333,203.970 207.357,203.200 207.460 " stroke="none" fill="#359cff" fill-rule="evenodd"></path><path id="path4" d="" stroke="none" fill="#00ffff" fill-rule="evenodd"></path></g></svg>